<?xml version="1.0" encoding="UTF-8"?>
<svg id="Calque_2" xmlns="http://www.w3.org/2000/svg" width="14" height="25" viewBox="0 0 14 25">
  <defs>
    <style>
      .cls-1 {
        fill: #fff;
      }
    </style>
  </defs>
  <polygon class="cls-1" points="0 0 0 9 1 9 1 18 2 18 2 19 4 19 4 17 5 17 5 16 7 16 7 18 8 18 8 20 9 20 9 22 10 22 10 24 11 24 11 25 14 25 14 23 13 23 13 22 12 22 12 20 11 20 11 18 10 18 10 16 9 16 9 14 11 14 11 13 12 13 12 12 14 12 14 9 12 9 12 8 11 8 11 7 9 7 9 6 8 6 8 5 7 5 7 4 5 4 5 3 4 3 4 2 3 2 3 1 2 1 2 0 0 0"/>
</svg>